<svg xmlns="http://www.w3.org/2000/svg" viewBox="0 0 1200 800" width="1200" height="800"><path d="M 105.0,103.6 L 228.8,104.4 L 352.5,102.6 L 476.2,76.7 L 600.0,92.9 L 723.8,87.6 L 847.5,91.0 L 971.2,78.2 L 1095.0,80.1 L 1093.2,167.5 L 1086.1,245.0 L 1093.6,322.5 L 1079.8,400.0 L 1081.7,477.5 L 1101.7,555.0 L 1092.5,632.5 L 1095.4,710.0 L 971.2,717.5 L 847.5,705.5 L 723.8,695.8 L 600.0,719.1 L 476.2,712.9 L 352.5,715.1 L 228.8,713.9 L 105.0,725.1 L 100.6,632.5 L 113.3,555.0 L 100.8,477.5 L 107.3,400.0 L 110.1,322.5 L 99.1,245.0 L 91.7,167.5 Z" fill="#FFF8E8" stroke="#8DBA79" stroke-width="14" stroke-linejoin="round"/></svg>